<svg width="88" height="31" version="1.1" viewBox="0 0 88 31" xml:space="preserve" xmlns="http://www.w3.org/2000/svg"><defs><clipPath id="clip"><rect id="half" width="44" height="31" shape-rendering="crispEdges"/></clipPath></defs><g id="enby" shape-rendering="crispEdges">
      <path id="enby-4" d="m0 0h88v31h-88z" fill="#000"/>
      <path id="enby-3" d="m0 0h88v23h-88z" fill="#9d59d2"/>
      <path id="enby-2" d="m0 0h88v16h-88z" fill="#fff"/>
      <path id="enby-1" d="m0 0h88v8h-88z" fill="#fff430"/>
    </g><g id="enby" shape-rendering="crispEdges" clip-path="url(#clip)">
      <path id="enby-4" d="m0 0h88v31h-88z" fill="#000"/>
      <path id="enby-3" d="m0 0h88v23h-88z" fill="#9d59d2"/>
      <path id="enby-2" d="m0 0h88v16h-88z" fill="#fff"/>
      <path id="enby-1" d="m0 0h88v8h-88z" fill="#fff430"/>
    </g><g id="outset" shape-rendering="crispEdges">
      <path id="outset-2" d="m0 6e-8h2v29l-2 2zm0 0h88l-2 2h-86z" fill="#fff" fill-opacity=".66667"/>
      <path id="outset-1" d="m86 2 2-2v31h-2zm-84 27h86v2h-88z" fill="#000" fill-opacity=".66667"/>
    </g></svg>